<svg width="209" height="29" viewBox="0 0 209 29" fill="none" xmlns="http://www.w3.org/2000/svg">
<path d="M54.5995 25.5983C54.102 25.3804 54.0098 25.2266 54.0098 24.5419C54.0098 22.8315 54.1327 20.9673 54.1663 20.4698C54.197 20.0031 54.2892 19.6621 54.538 19.6621C54.8175 19.6621 54.8482 19.9416 54.8482 20.1904C54.8482 20.5956 54.9712 21.2468 55.1277 21.775C55.8124 24.0752 57.6458 24.9136 59.5715 24.9136C62.3691 24.9136 63.7358 23.0187 63.7358 21.3698C63.7358 19.8466 63.269 18.4156 60.6894 16.395L59.2585 15.277C55.8404 12.6052 54.6582 10.428 54.6582 7.90988C54.6582 4.49181 57.5173 2.03516 61.8381 2.03516C63.8587 2.03516 65.1639 2.34538 65.9716 2.56338C66.2511 2.62486 66.4076 2.71989 66.4076 2.93509C66.4076 3.34034 66.2846 4.24028 66.2846 6.66619C66.2846 7.35092 66.1924 7.59966 65.9437 7.59966C65.7257 7.59966 65.6335 7.4124 65.6335 7.04069C65.6335 6.76121 65.4769 5.79699 64.8257 4.98929C64.359 4.39958 63.4591 3.46611 61.4384 3.46611C59.1383 3.46611 57.7409 4.80204 57.7409 6.66898C57.7409 8.09993 58.4563 9.18712 61.036 11.1463L61.9052 11.8003C65.667 14.6287 67.0029 16.7751 67.0029 19.7264C67.0029 21.5291 66.3182 23.6727 64.0795 25.1344C62.5256 26.1294 60.7844 26.4088 59.1383 26.4088C57.3356 26.4088 55.9354 26.1909 54.5995 25.6011V25.5983Z" fill="#231815"/>
<path d="M90.3451 12.356C90.4373 12.356 90.5323 12.2945 90.5323 12.138V11.484C90.5323 6.75797 90.5323 5.88878 90.4708 4.89382C90.4094 3.83737 90.1606 3.33989 89.1349 3.1219C88.8862 3.06041 88.3579 3.02967 87.922 3.02967C87.581 3.02967 87.3937 2.96818 87.3937 2.75019C87.3937 2.53219 87.6117 2.4707 88.0477 2.4707C89.7274 2.4707 91.6838 2.56293 92.525 2.56293C93.2713 2.56293 95.2304 2.4707 96.4406 2.4707C96.8766 2.4707 97.0946 2.53219 97.0946 2.75019C97.0946 2.96818 96.9073 3.02967 96.5356 3.02967C96.2869 3.02967 96.0074 3.06041 95.6329 3.1219C94.7944 3.27841 94.5457 3.80663 94.4814 4.89382C94.4199 5.88878 94.4199 6.75797 94.4199 11.484V16.9535C94.4199 19.8126 94.4199 22.2693 94.5764 23.6052C94.6687 24.4744 94.8559 25.1591 95.7894 25.2849C96.2254 25.3464 96.9073 25.4079 97.3741 25.4079C97.715 25.4079 97.8715 25.5001 97.8715 25.6566C97.8715 25.8746 97.6228 25.9668 97.2511 25.9668C95.2304 25.9668 93.2713 25.8746 92.4021 25.8746C91.6866 25.8746 89.7302 25.9668 88.5173 25.9668C88.0813 25.9668 87.8633 25.8746 87.8633 25.6566C87.8633 25.5001 87.9862 25.4079 88.3607 25.4079C88.8275 25.4079 89.1992 25.3464 89.4787 25.2849C90.0991 25.1591 90.2556 24.4772 90.3814 23.5744C90.5379 22.2693 90.5379 19.8126 90.5379 16.9535V14.2174C90.5379 14.0944 90.4457 14.0301 90.3507 14.0301H78.4754C78.3832 14.0301 78.2882 14.0609 78.2882 14.2174V16.9535C78.2882 19.8126 78.2882 22.2693 78.4447 23.6052C78.5369 24.4744 78.7242 25.1591 79.6576 25.2849C80.0936 25.3464 80.7756 25.4079 81.2423 25.4079C81.5833 25.4079 81.7398 25.5001 81.7398 25.6566C81.7398 25.8746 81.4911 25.9668 81.1193 25.9668C79.0987 25.9668 77.1395 25.8746 76.2703 25.8746C75.5548 25.8746 73.5985 25.9668 72.3548 25.9668C71.9495 25.9668 71.7343 25.8746 71.7343 25.6566C71.7343 25.5001 71.8601 25.4079 72.2318 25.4079C72.6985 25.4079 73.0702 25.3464 73.3497 25.2849C73.9702 25.1591 74.1267 24.4772 74.2497 23.5744C74.4062 22.2693 74.4062 19.8126 74.4062 16.9535V11.484C74.4062 6.75797 74.4062 5.88878 74.3447 4.89382C74.2832 3.83737 74.0345 3.33989 73.0088 3.1219C72.76 3.06041 72.2318 3.02967 71.7958 3.02967C71.4548 3.02967 71.2676 2.96818 71.2676 2.75019C71.2676 2.53219 71.4856 2.4707 71.9216 2.4707C73.6013 2.4707 75.5576 2.56293 76.3989 2.56293C77.1451 2.56293 79.1043 2.4707 80.3144 2.4707C80.7504 2.4707 80.9684 2.53219 80.9684 2.75019C80.9684 2.96818 80.7812 3.02967 80.4095 3.02967C80.1607 3.02967 79.8812 3.06041 79.5095 3.1219C78.6711 3.27841 78.4223 3.80663 78.3581 4.89382C78.2966 5.88878 78.2966 6.75797 78.2966 11.484V12.138C78.2966 12.2945 78.3888 12.356 78.4838 12.356H90.359H90.3451Z" fill="#231815"/>
<path d="M101.227 14.2206C101.227 8.90484 104.74 2.03516 114.063 2.03516C121.802 2.03516 126.62 6.54321 126.62 13.6616C126.62 20.7801 121.646 26.4061 113.753 26.4061C104.832 26.4061 101.227 19.7236 101.227 14.2206ZM122.269 14.8131C122.269 7.85119 118.258 3.53039 113.16 3.53039C109.586 3.53039 105.514 5.52031 105.514 13.2592C105.514 19.7236 109.088 24.8521 115.055 24.8521C117.233 24.8521 122.266 23.7957 122.266 14.8131H122.269Z" fill="#231815"/>
<path d="M139.489 16.0879C140.048 16.0879 140.484 16.1494 140.484 16.5239C140.484 16.9599 139.956 17.0521 139.084 17.2086C137.84 17.3959 132.152 18.3908 131.065 18.7011C130.445 18.8576 129.947 19.1985 129.699 19.1985C129.45 19.1985 129.388 18.9498 129.45 18.6396L129.917 16.4959C130.009 16.1242 130.135 16.0907 130.663 16.0907H139.492L139.489 16.0879Z" fill="#231815"/>
<path d="M144.928 25.5983C144.43 25.3804 144.338 25.2266 144.338 24.5419C144.338 22.8315 144.461 20.9673 144.494 20.4698C144.525 20.0031 144.617 19.6621 144.866 19.6621C145.146 19.6621 145.176 19.9416 145.176 20.1904C145.176 20.5956 145.299 21.2468 145.456 21.775C146.141 24.0752 147.974 24.9136 149.9 24.9136C152.697 24.9136 154.064 23.0187 154.064 21.3698C154.064 19.8466 153.597 18.4156 151.018 16.395L149.587 15.277C146.169 12.6052 144.986 10.428 144.986 7.90988C144.986 4.49181 147.845 2.03516 152.166 2.03516C154.187 2.03516 155.492 2.34538 156.3 2.56338C156.579 2.62486 156.736 2.71989 156.736 2.93509C156.736 3.34034 156.613 4.24028 156.613 6.66619C156.613 7.35092 156.521 7.59966 156.272 7.59966C156.054 7.59966 155.962 7.4124 155.962 7.04069C155.962 6.76121 155.805 5.79699 155.154 4.98929C154.687 4.39958 153.787 3.46611 151.767 3.46611C149.466 3.46611 148.069 4.80204 148.069 6.66898C148.069 8.09993 148.784 9.18712 151.364 11.1463L152.233 11.8003C155.995 14.6287 157.331 16.7751 157.331 19.7264C157.331 21.5291 156.646 23.6727 154.408 25.1344C152.854 26.1294 151.113 26.4088 149.466 26.4088C147.664 26.4088 146.264 26.1909 144.928 25.6011V25.5983Z" fill="#231815"/>
<path d="M165.971 18.0439C165.815 18.0439 165.753 18.1054 165.692 18.2927L164.012 22.552C163.702 23.3289 163.545 24.0752 163.545 24.4469C163.545 25.0058 163.825 25.4111 164.789 25.4111H165.256C165.627 25.4111 165.722 25.4726 165.722 25.6598C165.722 25.9086 165.535 25.9701 165.194 25.9701C164.199 25.9701 162.863 25.8778 161.899 25.8778C161.558 25.8778 159.848 25.9701 158.232 25.9701C157.827 25.9701 157.643 25.9086 157.643 25.6598C157.643 25.4726 157.766 25.4111 158.014 25.4111C158.294 25.4111 158.73 25.3804 158.978 25.3496C160.409 25.1624 160.999 24.1059 161.62 22.552L169.423 3.27885C169.794 2.37892 169.982 2.03516 170.292 2.03516C170.571 2.03516 170.759 2.31464 171.069 3.03012C171.815 4.74055 176.787 17.1719 178.777 21.898C179.959 24.6956 180.859 25.1316 181.513 25.2853C181.98 25.3776 182.447 25.4083 182.818 25.4083C183.067 25.4083 183.224 25.439 183.224 25.657C183.224 25.9058 182.944 25.9673 181.793 25.9673C180.641 25.9673 178.405 25.9673 175.918 25.9058C175.359 25.875 174.984 25.875 174.984 25.657C174.984 25.4698 175.11 25.4083 175.42 25.3776C175.638 25.3161 175.856 25.0366 175.7 24.6621L173.213 18.2591C173.151 18.1026 173.056 18.0411 172.902 18.0411H165.971V18.0439ZM172.313 16.49C172.469 16.49 172.5 16.3978 172.469 16.3028L169.672 8.6561C169.641 8.53313 169.61 8.37662 169.515 8.37662C169.42 8.37662 169.358 8.53313 169.328 8.6561L166.469 16.272C166.438 16.395 166.469 16.49 166.592 16.49H172.31H172.313Z" fill="#231815"/>
<path d="M188.228 21.7434C188.289 24.1666 188.694 24.9771 189.315 25.1951C189.843 25.3823 190.433 25.413 190.93 25.413C191.271 25.413 191.459 25.4745 191.459 25.6618C191.459 25.9105 191.179 25.972 190.743 25.972C188.722 25.972 187.479 25.8798 186.889 25.8798C186.609 25.8798 185.148 25.972 183.532 25.972C183.127 25.972 182.848 25.9413 182.848 25.6618C182.848 25.4745 183.035 25.413 183.345 25.413C183.75 25.413 184.309 25.3823 184.745 25.2565C185.553 25.0078 185.679 24.1051 185.71 21.4025L185.989 3.09355C185.989 2.4731 186.081 2.03711 186.394 2.03711C186.735 2.03711 187.015 2.44236 187.546 3.00132C187.917 3.40657 192.644 8.37857 197.182 12.8866C199.295 14.9995 203.493 19.4768 204.021 19.9743H204.178L203.868 6.01694C203.837 4.12205 203.557 3.52955 202.811 3.21932C202.344 3.03207 201.598 3.03207 201.165 3.03207C200.793 3.03207 200.667 2.93984 200.667 2.75259C200.667 2.50385 201.008 2.4731 201.475 2.4731C203.091 2.4731 204.583 2.56533 205.237 2.56533C205.578 2.56533 206.76 2.4731 208.283 2.4731C208.689 2.4731 208.999 2.50385 208.999 2.75259C208.999 2.93984 208.812 3.03207 208.44 3.03207C208.13 3.03207 207.881 3.03207 207.506 3.1243C206.637 3.37304 206.388 4.02703 206.355 5.76541L206.014 25.3795C206.014 26.0642 205.891 26.3437 205.609 26.3437C205.268 26.3437 204.893 26.0028 204.552 25.659C202.593 23.7948 198.616 19.7228 195.382 16.5199C191.995 13.1633 188.544 9.37074 187.985 8.78103H187.892L188.233 21.7434H188.228Z" fill="#231815"/>
<path d="M0 3.64725V24.5106C0 26.5257 1.63218 28.1579 3.64725 28.1579C5.66232 28.1579 7.2945 26.5257 7.2945 24.5106V3.64725C7.2945 1.63218 5.66232 0 3.64725 0C1.63218 0 0 1.63218 0 3.64725Z" fill="#231815"/>
<path d="M26.0341 4.12161L23.3539 6.80185L13.9661 16.1925L11.2858 18.8727C9.86046 20.2981 9.86046 22.6066 11.2858 24.032C12.7112 25.4545 15.0197 25.4545 16.4451 24.032L19.1253 21.3517L28.5159 11.9611L31.1962 9.28087C32.6215 7.8555 32.6215 5.54698 31.1962 4.12161C29.7708 2.69905 27.4623 2.69905 26.0369 4.12161" fill="#C7161D"/>
<path d="M35.1777 3.64725V24.5106C35.1777 26.5257 36.8099 28.1579 38.825 28.1579C40.8401 28.1579 42.4722 26.5257 42.4722 24.5106V3.64725C42.4722 1.63218 40.8401 0 38.825 0C36.8099 0 35.1777 1.63218 35.1777 3.64725Z" fill="#231815"/>
</svg>
